# xmcd CD database file
# Copyright (C) 1993-1998 Ti Kan
#
# Track frame offsets:
#	182
#	13515
#	32667
#	46410
#	61965
#	76082
#	92625
#	103985
#	117012
#	131097
#	150777
#	159115
#	171877
#	187655
#	196197
#	205942
#	218857
#	232152
#	242077
#	254845
#	264667
#	276697
#	291665
#	302405
#
# Disc length: 4270 seconds
#
# Revision: 1
# Processed by: cddbd v1.4b41PL1 Copyright (c) Steve Scherf et al.
# Submitted via: NotifyCDPlayer(CDDB) 1.51.3
#
DISCID=5210ac18
DTITLE=Boxcar Willie - The Best Of Boxcar Willie
DYEAR=1900
DGENRE=
TTITLE0=T For Texas
TTITLE1=Winds Of Yesterday
TTITLE2=Lonesome Whistle
TTITLE3=Wabash Cannonball
TTITLE4=You Are My Sunshine
TTITLE5=Thru A Boxcar Door
TTITLE6=Youth Of Yesterday
TTITLE7=In The Pines
TTITLE8=Boxcar Blues
TTITLE9=Danny Boy
TTITLE10=Daddy Was A Railroad Man
TTITLE11=Spirit Of America
TTITLE12=Old Kentucky Home
TTITLE13=America The Beautiful
TTITLE14=Hobo Till I Die
TTITLE15=Long Black Limousine
TTITLE16=Hank, You're Like Your Daddy
TTITLE17=Polly Woly Doodle
TTITLE18=Reflections Of An Old Man
TTITLE19=Jessie James Robbed Trains
TTITLE20=Woman You're Just Like Water
TTITLE21=White Line Fever
TTITLE22=Six Days On The Road
TTITLE23=How Great Thou Art
EXTD=
EXTT0=
EXTT1=
EXTT2=
EXTT3=
EXTT4=
EXTT5=
EXTT6=
EXTT7=
EXTT8=
EXTT9=
EXTT10=
EXTT11=
EXTT12=
EXTT13=
EXTT14=
EXTT15=
EXTT16=
EXTT17=
EXTT18=
EXTT19=
EXTT20=
EXTT21=
EXTT22=
EXTT23=
PLAYORDER=
